<?xml version="1.0" encoding="UTF-8"?>
<svg width="320px" height="183px" viewBox="0 0 320 183" version="1.1" xmlns="http://www.w3.org/2000/svg" xmlns:xlink="http://www.w3.org/1999/xlink">
    <title>Born to craft Copy</title>
    <g id="UI-Styleguide" stroke="none" stroke-width="1" fill="none" fill-rule="evenodd">
        <g id="Born-to-craft-Copy" transform="translate(0.701376, 0.142208)" fill="#FFFFFF" fill-rule="nonzero">
            <g id="TO-CRAFT" transform="translate(1.883840, 74.971584)">
                <polygon id="T" points="7.754112 106.363008 21.360384 106.363008 21.360384 14.484096 29.2608 14.484096 29.2608 1.024128 0 1.024128 0 14.484096 7.754112 14.484096"></polygon>
                <path d="M57.8876155,107.387136 C67.9825915,107.387136 74.4199675,103.14432 74.4199675,91.878912 L74.4199675,15.36192 C74.4199675,5.12064 68.4215035,0 58.0339195,0 C47.9389435,0 41.5015675,5.12064 41.5015675,15.36192 L41.5015675,91.878912 C41.5015675,103.14432 48.0852475,107.387136 57.8876155,107.387136 Z M58.0339195,94.219776 C55.9856635,94.219776 55.4004475,93.195648 55.4004475,89.97696 L55.4004475,16.239744 C55.4004475,13.16736 55.9856635,12.143232 57.8876155,12.143232 C59.9358715,12.143232 60.5210875,13.16736 60.5210875,16.239744 L60.5210875,89.97696 C60.5210875,93.195648 59.9358715,94.219776 58.0339195,94.219776 Z" id="O"></path>
                <path d="M131.380991,107.387136 C141.622271,107.387136 147.328127,103.14432 147.328127,91.732608 L147.328127,60.423552 L133.868159,60.423552 L133.868159,89.97696 C133.868159,93.488256 133.282943,94.219776 131.380991,94.219776 C129.479039,94.219776 129.040127,93.488256 129.040127,89.97696 L129.040127,16.532352 C129.040127,13.16736 129.625343,12.143232 131.380991,12.143232 C133.282943,12.143232 133.868159,13.16736 133.868159,16.532352 L133.868159,43.598592 L147.181823,43.598592 L147.181823,15.069312 C147.181823,4.38912 141.475967,0 131.527295,0 C121.432319,0 115.141247,4.38912 115.141247,15.069312 L115.141247,91.732608 C115.141247,103.14432 120.261887,107.387136 131.380991,107.387136 Z" id="C"></path>
                <path d="M161.763454,106.363008 L174.930814,106.363008 L174.930814,62.91072 L176.540158,62.91072 C179.17363,62.91072 180.051454,64.081152 180.051454,67.153536 L180.051454,99.925632 C180.051454,102.851712 180.490366,105.777792 181.660798,106.363008 L195.705982,106.363008 C193.950334,104.60736 193.511422,102.4128 193.511422,99.48672 L193.511422,65.8368 C193.511422,59.98464 191.60947,57.204864 187.512958,55.888128 C191.463166,54.425088 193.07251,51.2064 193.07251,45.35424 L193.07251,13.752576 C193.07251,4.974336 189.41491,1.024128 178.149502,1.024128 L161.763454,1.024128 L161.763454,106.363008 Z M176.686462,12.582144 C179.319934,12.582144 180.197758,13.313664 180.197758,15.654528 L180.197758,46.670976 C180.197758,49.158144 179.17363,49.889664 176.686462,49.889664 L174.930814,49.889664 L174.930814,12.582144 L176.686462,12.582144 Z" id="R"></path>
                <path d="M205.166974,106.363008 L218.18803,106.363008 L218.773246,96.56064 L225.356926,96.56064 L225.942142,106.363008 L239.255806,106.363008 L228.868222,1.024128 L214.823038,1.024128 L205.166974,106.363008 Z M221.260414,52.376832 L221.991934,31.45536 L222.723454,52.376832 L224.625406,84.271104 L219.504766,84.271104 L221.260414,52.376832 Z" id="A"></path>
                <polygon id="F" points="251.496573 106.363008 264.956541 106.363008 264.956541 59.692032 274.612605 59.692032 274.612605 46.232064 264.956541 46.232064 264.956541 14.6304 275.051517 14.6304 275.051517 1.024128 251.496573 1.024128"></polygon>
                <polygon id="T" points="295.485309 106.363008 309.091581 106.363008 309.091581 14.484096 316.991997 14.484096 316.991997 1.024128 287.731197 1.024128 287.731197 14.484096 295.485309 14.484096"></polygon>
            </g>
            <g id="BORN">
                <path d="M0,65.126592 L40.010112,65.126592 C60.543936,65.126592 72.353088,59.750784 72.353088,46.70784 C72.353088,38.159424 67.594176,34.017408 57.018816,32.16672 C65.479104,30.40416 70.414272,26.526528 70.414272,18.94752 C70.414272,7.226496 61.953984,1.674432 38.77632,1.674432 L0,1.674432 L0,65.126592 Z M35.868096,20.71008 C40.010112,20.71008 41.243904,22.120128 41.155776,23.618304 C41.155776,25.204608 40.09824,26.702784 35.868096,26.702784 L27.672192,26.702784 L27.672192,20.71008 L35.868096,20.71008 Z M35.427456,39.21696 C40.715136,39.21696 42.125184,40.362624 42.125184,42.213312 C42.125184,44.152128 40.891392,45.474048 35.427456,45.474048 L27.672192,45.474048 L27.672192,39.21696 L35.427456,39.21696 Z" id="B"></path>
                <path d="M116.876736,66.801024 C140.759424,66.801024 155.388672,56.137536 155.388672,33.576768 C155.388672,12.602304 140.142528,0 117.405504,0 C93.8753281,0 78.3648001,12.602304 78.3648001,33.576768 C78.3648001,56.137536 92.5534081,66.801024 116.876736,66.801024 Z M116.876736,42.918336 C110.884032,42.918336 107.0064,39.569472 107.0064,33.576768 C107.0064,27.848448 110.884032,24.058944 116.876736,24.058944 C122.86944,24.058944 126.747072,27.848448 126.747072,33.576768 C126.747072,39.569472 122.86944,42.918336 116.876736,42.918336 Z" id="O"></path>
                <path d="M164.22048,65.126592 L191.011392,65.126592 L191.011392,49.527936 L198.678528,49.527936 C203.701824,49.527936 205.111872,50.761728 205.111872,55.344384 L205.111872,60.896448 C205.111872,62.482752 205.728768,64.245312 207.491328,65.126592 L236.661696,65.126592 C234.72288,64.245312 233.665344,62.306496 233.665344,60.103296 L233.665344,56.049408 C233.665344,46.2672 231.990912,41.42016 223.354368,39.305088 C231.285888,36.308736 234.811008,31.021056 234.811008,23.265792 C234.811008,8.636544 226.79136,1.674432 201.057984,1.674432 L164.22048,1.674432 L164.22048,65.126592 Z M201.851136,22.47264 C205.552512,22.47264 207.138816,24.058944 207.138816,26.4384 C207.138816,28.905984 205.111872,30.492288 201.851136,30.492288 L191.011392,30.492288 L191.011392,22.47264 L201.851136,22.47264 Z" id="R"></path>
                <polygon id="N" points="243.554688 65.126592 270.169344 65.126592 270.169344 35.603712 292.906368 65.126592 318.463488 65.126592 318.463488 1.674432 291.93696 1.674432 291.93696 29.875392 269.90496 1.674432 243.554688 1.674432"></polygon>
            </g>
        </g>
    </g>
</svg>